<svg width="45" height="45" viewBox="0 0 45 45" fill="none" xmlns="http://www.w3.org/2000/svg">
<path d="M11.25 37.5C9.6875 37.5 8.35938 36.9531 7.26562 35.8594C6.17188 34.7656 5.625 33.4375 5.625 31.875H1.875V11.25C1.875 10.2188 2.24219 9.33594 2.97656 8.60156C3.71094 7.86719 4.59375 7.5 5.625 7.5H31.875V15H37.5L43.125 22.5V31.875H39.375C39.375 33.4375 38.8281 34.7656 37.7344 35.8594C36.6406 36.9531 35.3125 37.5 33.75 37.5C32.1875 37.5 30.8594 36.9531 29.7656 35.8594C28.6719 34.7656 28.125 33.4375 28.125 31.875H16.875C16.875 33.4375 16.3281 34.7656 15.2344 35.8594C14.1406 36.9531 12.8125 37.5 11.25 37.5ZM11.25 33.75C11.7812 33.75 12.2266 33.5703 12.5859 33.2109C12.9453 32.8516 13.125 32.4062 13.125 31.875C13.125 31.3438 12.9453 30.8984 12.5859 30.5391C12.2266 30.1797 11.7812 30 11.25 30C10.7188 30 10.2734 30.1797 9.91406 30.5391C9.55469 30.8984 9.375 31.3438 9.375 31.875C9.375 32.4062 9.55469 32.8516 9.91406 33.2109C10.2734 33.5703 10.7188 33.75 11.25 33.75ZM33.75 33.75C34.2812 33.75 34.7266 33.5703 35.0859 33.2109C35.4453 32.8516 35.625 32.4062 35.625 31.875C35.625 31.3438 35.4453 30.8984 35.0859 30.5391C34.7266 30.1797 34.2812 30 33.75 30C33.2188 30 32.7734 30.1797 32.4141 30.5391C32.0547 30.8984 31.875 31.3438 31.875 31.875C31.875 32.4062 32.0547 32.8516 32.4141 33.2109C32.7734 33.5703 33.2188 33.75 33.75 33.75ZM31.875 24.375H39.8438L35.625 18.75H31.875V24.375Z" fill="#00FF85"/>
</svg>
