<svg width="63" height="63" viewBox="0 0 63 63" fill="none" xmlns="http://www.w3.org/2000/svg">
<path d="M18.375 57.75C16.9312 57.75 15.6953 57.2359 14.6672 56.2078C13.6391 55.1797 13.125 53.9437 13.125 52.5C13.125 51.0562 13.6391 49.8203 14.6672 48.7922C15.6953 47.7641 16.9312 47.25 18.375 47.25C19.8187 47.25 21.0547 47.7641 22.0828 48.7922C23.1109 49.8203 23.625 51.0562 23.625 52.5C23.625 53.9437 23.1109 55.1797 22.0828 56.2078C21.0547 57.2359 19.8187 57.75 18.375 57.75ZM44.625 57.75C43.1812 57.75 41.9453 57.2359 40.9172 56.2078C39.8891 55.1797 39.375 53.9437 39.375 52.5C39.375 51.0562 39.8891 49.8203 40.9172 48.7922C41.9453 47.7641 43.1812 47.25 44.625 47.25C46.0687 47.25 47.3047 47.7641 48.3328 48.7922C49.3609 49.8203 49.875 51.0562 49.875 52.5C49.875 53.9437 49.3609 55.1797 48.3328 56.2078C47.3047 57.2359 46.0687 57.75 44.625 57.75ZM16.1437 15.75L22.4437 28.875H40.8187L48.0375 15.75H16.1437ZM13.65 10.5H52.3687C53.375 10.5 54.1406 10.9484 54.6656 11.8453C55.1906 12.7422 55.2125 13.65 54.7312 14.5687L45.4125 31.3687C44.9312 32.2437 44.2859 32.9219 43.4766 33.4031C42.6672 33.8844 41.7812 34.125 40.8187 34.125H21.2625L18.375 39.375H49.875V44.625H18.375C16.4062 44.625 14.9187 43.7609 13.9125 42.0328C12.9062 40.3047 12.8625 38.5875 13.7812 36.8812L17.325 30.45L7.875 10.5H2.625V5.25H11.1562L13.65 10.5Z" fill="white"/>
</svg>
