<svg width="40" height="40" viewBox="0 0 40 40" fill="none" xmlns="http://www.w3.org/2000/svg">
<path d="M11.6667 36.6667C10.7501 36.6667 9.96536 36.3403 9.31258 35.6875C8.6598 35.0347 8.33342 34.25 8.33342 33.3333C8.33342 32.4167 8.6598 31.632 9.31258 30.9792C9.96536 30.3264 10.7501 30 11.6667 30C12.5834 30 13.3681 30.3264 14.0209 30.9792C14.6737 31.632 15.0001 32.4167 15.0001 33.3333C15.0001 34.25 14.6737 35.0347 14.0209 35.6875C13.3681 36.3403 12.5834 36.6667 11.6667 36.6667ZM28.3334 36.6667C27.4167 36.6667 26.632 36.3403 25.9792 35.6875C25.3265 35.0347 25.0001 34.25 25.0001 33.3333C25.0001 32.4167 25.3265 31.632 25.9792 30.9792C26.632 30.3264 27.4167 30 28.3334 30C29.2501 30 30.0348 30.3264 30.6876 30.9792C31.3404 31.632 31.6667 32.4167 31.6667 33.3333C31.6667 34.25 31.3404 35.0347 30.6876 35.6875C30.0348 36.3403 29.2501 36.6667 28.3334 36.6667ZM10.2501 10L14.2501 18.3333H25.9167L30.5001 10H10.2501ZM8.66675 6.66668H33.2501C33.889 6.66668 34.3751 6.9514 34.7084 7.52084C35.0417 8.09029 35.0556 8.66668 34.7501 9.25001L28.8334 19.9167C28.5279 20.4722 28.1181 20.9028 27.6042 21.2083C27.0904 21.5139 26.5279 21.6667 25.9167 21.6667H13.5001L11.6667 25H31.6667V28.3333H11.6667C10.4167 28.3333 9.4723 27.7847 8.83342 26.6875C8.19453 25.5903 8.16675 24.5 8.75008 23.4167L11.0001 19.3333L5.00008 6.66668H1.66675V3.33334H7.08342L8.66675 6.66668Z" fill="white"/>
</svg>
